Coordinates
version=1
nRows=32
nColumns=22
inDegrees=yes

Units are S.I. units (second, meters, Newtons, ...)
If the header above contains a line with 'inDegrees', this indicates whether rotational values are in degrees (yes) or radians (no).

endheader
time	pelvis_tilt	pelvis_list	pelvis_rotation	pelvis_tx	pelvis_ty	pelvis_tz	hip_flexion_r	hip_adduction_r	hip_rotation_r	knee_angle_r	ankle_angle_r	subtalar_angle_r	hip_flexion_l	hip_adduction_l	hip_rotation_l	knee_angle_l	ankle_angle_l	subtalar_angle_l	lumbar_extension	lumbar_bending	lumbar_rotation
      5.49000000	     -8.58187800	     -8.40677439	    271.53692939	     -0.81225104	      0.95103521	      0.23597138	     -4.07709239	     10.34973381	    -10.41690128	    -10.11767364	      6.27882261	    180.35053356	      9.58153497	    -10.63662450	     -3.57768153	    -36.91042606	     25.28551572	     -9.98077490	    -14.76488979	      8.66193460	     -5.55076403
      5.50000000	     -8.50683419	     -8.38806321	    271.60227047	     -0.81237880	      0.95096657	      0.23860932	     -4.22698837	     10.29879628	    -10.48031511	    -10.13732824	      6.46895257	    180.19827449	      9.27881447	    -10.48471904	     -4.12723097	    -35.73762228	     25.03125867	    -10.71347009	    -14.73495257	      8.63920346	     -5.44349319
      5.51000000	     -8.44617392	     -8.36889377	    271.67505301	     -0.81240300	      0.95088658	      0.24119982	     -4.36340131	     10.25472070	    -10.57433089	    -10.17425341	      6.63507148	    180.07576880	      8.98017466	    -10.34643677	     -4.61939373	    -34.74403301	     24.70242130	    -11.64615041	    -14.69867517	      8.63787678	     -5.34444311
      5.52000000	     -8.36697786	     -8.36203543	    271.75491271	     -0.81234775	      0.95083224	      0.24375541	     -4.50628381	     10.18637329	    -10.65443311	    -10.22308349	      6.86621722	    180.01163335	      8.65775981	    -10.19697949	     -5.07287459	    -33.91162183	     24.35121934	    -12.54692941	    -14.67012029	      8.61679223	     -5.30176052
      5.53000000	     -8.29379320	     -8.35662497	    271.85804678	     -0.81218751	      0.95079371	      0.24626333	     -4.64792691	     10.12225445	    -10.76204968	    -10.26755211	      7.06517733	    179.98869579	      8.34443062	    -10.05414137	     -5.42208082	    -33.25400198	     24.01040211	    -13.52905710	    -14.63625066	      8.60602529	     -5.27413668
      5.54000000	     -8.20461236	     -8.35372298	    271.98459779	     -0.81192814	      0.95078885	      0.24873740	     -4.79651008	     10.04011460	    -10.87612365	    -10.29876727	      7.26445414	    180.00015145	      8.02604929	     -9.89609158	     -5.66857624	    -32.72592860	     23.73058063	    -14.41071762	    -14.59699743	      8.58060075	     -5.28486063
      5.55000000	     -8.08878501	     -8.35276145	    272.13818931	     -0.81158209	      0.95082924	      0.25119375	     -4.95497916	      9.93049969	    -11.01219903	    -10.31379041	      7.46918521	    180.02382215	      7.69745553	     -9.70829925	     -5.79516800	    -32.28281103	     23.52885837	    -15.07576285	    -14.54894156	      8.52303872	     -5.31319908
      5.56000000	     -7.96332572	     -8.35546835	    272.32215740	     -0.81115620	      0.95091795	      0.25360366	     -5.12394120	      9.81568149	    -11.14921982	    -10.30998855	      7.63472035	    180.05694747	      7.37545728	     -9.51861769	     -5.83480899	    -31.91344761	     23.38447969	    -15.60943025	    -14.49974619	      8.45734001	     -5.40546838
      5.57000000	     -7.80611378	     -8.32201630	    272.53846192	     -0.81064030	      0.95101568	      0.25597110	     -5.26174561	      9.67025578	    -11.25803720	    -10.28522196	      7.77757214	    180.07082339	      7.09102325	     -9.29178992	     -5.76844140	    -31.56267880	     23.25834838	    -15.81580790	    -14.40073272	      8.36135086	     -5.54299426
      5.58000000	     -7.61334444	     -8.33929082	    272.77543628	     -0.81008313	      0.95125378	      0.25836910	     -5.48531558	      9.49501006	    -11.42028708	    -10.21065290	      7.91310823	    180.10995740	      6.73733040	     -9.04670806	     -5.69998378	    -31.20364726	     23.21673234	    -16.04729668	    -14.34694568	      8.21590916	     -5.69390469
      5.59000000	     -7.38677908	     -8.30622293	    273.04253548	     -0.80944752	      0.95148413	      0.26071061	     -5.65339340	      9.28197298	    -11.60283968	    -10.13392993	      8.03716460	    180.11465499	      6.44183424	     -8.76449273	     -5.57736990	    -30.83328382	     23.12020753	    -16.01349047	    -14.23250465	      8.03676591	     -5.86565836
      5.60000000	     -7.12410811	     -8.28661314	    273.32139265	     -0.80876745	      0.95180071	      0.26304228	     -5.84950527	      9.03292838	    -11.79661085	    -10.03872168	      8.14934272	    180.11897555	      6.11398530	     -8.45786217	     -5.48563121	    -30.42617187	     23.01192207	    -15.88151706	    -14.12813760	      7.81704298	     -6.06334753
      5.61000000	     -6.83611106	     -8.27626767	    273.59723276	     -0.80807299	      0.95219024	      0.26536259	     -6.07080188	      8.75963029	    -11.97375828	     -9.92218043	      8.24228653	    180.12845876	      5.75081979	     -8.14147649	     -5.45744084	    -29.97258478	     22.89099755	    -15.59906922	    -14.03364435	      7.56783184	     -6.27244250
      5.62000000	     -6.52643792	     -8.23103172	    273.88304981	     -0.80734191	      0.95256625	      0.26763742	     -6.24923917	      8.45779764	    -12.19025080	     -9.81658039	      8.33483453	    180.11869651	      5.41541629	     -7.80831862	     -5.47017172	    -29.49009150	     22.73105890	    -15.31386532	    -13.89901840	      7.29392696	     -6.49478445
      5.63000000	     -6.20177331	     -8.16893234	    274.16122999	     -0.80660187	      0.95294634	      0.26988375	     -6.41426798	      8.13654635	    -12.41993008	     -9.70526303	      8.41939431	    180.10228576	      5.07375243	     -7.46463786	     -5.53597204	    -28.96429418	     22.54637366	    -15.02496817	    -13.74640029	      6.99794082	     -6.68975067
      5.64000000	     -5.87736950	     -8.12883548	    274.41639754	     -0.80586320	      0.95337046	      0.27209072	     -6.60602506	      7.81471485	    -12.60595941	     -9.59160255	      8.48430109	    180.08765950	      4.67425909	     -7.13484441	     -5.69380215	    -28.38326126	     22.38417160	    -14.61658819	    -13.62775691	      6.70784979	     -6.90450466
      5.65000000	     -5.55314431	     -8.06503559	    274.66220971	     -0.80512462	      0.95375436	      0.27425901	     -6.76557138	      7.48664250	    -12.81524768	     -9.48982212	      8.55258424	    180.06483012	      4.28363988	     -6.80380199	     -5.88621816	    -27.77306231	     22.20380282	    -14.28781006	    -13.48311056	      6.41319699	     -7.10066410
      5.66000000	     -5.24019334	     -8.01447635	    274.88630040	     -0.80438945	      0.95414498	      0.27639258	     -6.94136243	      7.16867189	    -13.00703246	     -9.38313152	      8.60606477	    180.03950803	      3.85446388	     -6.48410497	     -6.11551437	    -27.12438515	     22.03825523	    -13.94630417	    -13.35921922	      6.13312250	     -7.28081847
      5.67000000	     -4.94016854	     -7.95839227	    275.09682180	     -0.80364550	      0.95449940	      0.27848291	     -7.10783446	      6.85857618	    -13.21447090	     -9.27958288	      8.66906482	    180.01089389	      3.42340481	     -6.17114596	     -6.34813959	    -26.46052954	     21.86322061	    -13.67460374	    -13.23389244	      5.86852152	     -7.43439790
      5.68000000	     -4.66253012	     -7.94882297	    275.28322149	     -0.80291220	      0.95488379	      0.28052786	     -7.32505426	      6.57599400	    -13.36789681	     -9.17111160	      8.70654381	    179.98397317	      2.93132824	     -5.88462445	     -6.60652799	    -25.78069039	     21.73631755	    -13.34426753	    -13.17156197	      5.63672388	     -7.60791770
      5.69000000	     -4.40076992	     -7.93427781	    275.45488599	     -0.80217543	      0.95522112	      0.28252461	     -7.53201414	      6.30614899	    -13.52693813	     -9.06530816	      8.75554566	    179.95980952	      2.45056318	     -5.60447431	     -6.84152182	    -25.10940364	     21.60731850	    -13.07325123	    -13.10765407	      5.42188865	     -7.75306858
      5.70000000	     -4.15125385	     -7.91637373	    275.61154892	     -0.80144081	      0.95550940	      0.28445965	     -7.72790072	      6.04521527	    -13.68927788	     -8.96587510	      8.82543671	    179.93980612	      1.98577108	     -5.32725037	     -7.04868147	    -24.45727083	     21.47321640	    -12.86888814	    -13.04838477	      5.22070334	     -7.87768996
      5.71000000	     -3.91781235	     -7.92425878	    275.74618875	     -0.80073206	      0.95579264	      0.28632673	     -7.94527456	      5.80301537	    -13.81306145	     -8.86927992	      8.88624592	    179.92827496	      1.50379437	     -5.06562306	     -7.24960627	    -23.82241611	     21.36720406	    -12.66319133	    -13.02889151	      5.04007602	     -8.00261458
      5.72000000	     -3.70180312	     -7.94265075	    275.85723814	     -0.80006019	      0.95605137	      0.28812134	     -8.16180542	      5.57745880	    -13.90537683	     -8.78548761	      8.93800060	    179.92721839	      1.02821119	     -4.81932596	     -7.43718560	    -23.21791512	     21.28382994	    -12.46264762	    -13.03023372	      4.87594454	     -8.11830681
      5.73000000	     -3.49895126	     -7.93936392	    275.95375054	     -0.79942489	      0.95624366	      0.28985026	     -8.34402907	      5.36107167	    -14.01424660	     -8.70955883	      9.01760789	    179.92803344	      0.59918367	     -4.58046752	     -7.60092067	    -22.64920112	     21.18610344	    -12.31585843	    -13.01096777	      4.71731262	     -8.19404094
      5.74000000	     -3.31151632	     -7.94497838	    276.03161028	     -0.79883894	      0.95641955	      0.29151628	     -8.52448561	      5.16089821	    -14.09682832	     -8.64415784	      9.08508807	    179.93778819	      0.17860020	     -4.35789769	     -7.75896780	    -22.11026066	     21.11360596	    -12.17201156	    -13.00713285	      4.57062364	     -8.26273765
      5.75000000	     -3.13832057	     -7.95357791	    276.09556280	     -0.79830568	      0.95658196	      0.29314890	     -8.70127247	      4.97504125	    -14.17641156	     -8.58514278	      9.16539757	    179.95611431	     -0.23127010	     -4.15135973	     -7.90832599	    -21.59295295	     21.03398171	    -12.03298960	    -13.00533609	      4.43048535	     -8.31404282
      5.76000000	     -2.98003446	     -7.94605332	    276.14523482	     -0.79781263	      0.95670311	      0.29472495	     -8.83776643	      4.79894789	    -14.23991298	     -8.55911643	      9.24373009	    179.97990365	     -0.60846379	     -3.95521741	     -8.03717904	    -21.09722174	     20.97054710	    -11.90735289	    -12.98572477	      4.30132361	     -8.35740001
      5.77000000	     -2.82874193	     -7.95745119	    276.19705361	     -0.79735657	      0.95683741	      0.29631406	     -9.01540486	      4.64043607	    -14.30671065	     -8.49006130	      9.32779684	    180.02700457	     -0.98751591	     -3.77530382	     -8.17730545	    -20.63610520	     20.90487536	    -11.76263476	    -12.97706741	      4.17069338	     -8.39375671
      5.78000000	     -2.69054107	     -7.95258107	    276.23743708	     -0.79695174	      0.95694334	      0.29787383	     -9.15527248	      4.49088252	    -14.36153875	     -8.45390574	      9.41654732	    180.08677939	     -1.33942796	     -3.60542085	     -8.29249856	    -20.18746374	     20.84523731	    -11.62273498	    -12.94441266	      4.04669322	     -8.42525407
      5.79000000	     -2.56610075	     -7.93564112	    276.26790197	     -0.79658605	      0.95702499	      0.29939372	     -9.26449302	      4.35137239	    -14.40025213	     -8.44362529	      9.50539671	    180.15446456	     -1.66617596	     -3.44671126	     -8.38371691	    -19.75397586	     20.79703159	    -11.48944684	    -12.89488629	      3.93374248	     -8.45732925
      5.80000000	     -2.45069921	     -7.92409627	    276.29459402	     -0.79626762	      0.95710987	      0.30091348	     -9.38897308	      4.22672040	    -14.43786093	     -8.40990000	      9.59344077	    180.24749922	     -1.98565683	     -3.30298068	     -8.47387853	    -19.34356009	     20.74808656	    -11.33939342	    -12.84192903	      3.82370677	     -8.48317923
